<?xml version="1.0" encoding="UTF-8"?>
<svg id="Layer_2" data-name="Layer 2" xmlns="http://www.w3.org/2000/svg" version="1.1" xmlns:xlink="http://www.w3.org/1999/xlink" viewBox="0 0 1870.2 1699.6">
  <defs>
    <style>
      .cls-1 {
        fill: #c8852f;
      }

      .cls-1, .cls-2, .cls-3, .cls-4, .cls-5, .cls-6, .cls-7, .cls-8, .cls-9, .cls-10, .cls-11, .cls-12, .cls-13, .cls-14, .cls-15, .cls-16, .cls-17, .cls-18, .cls-19, .cls-20, .cls-21, .cls-22, .cls-23, .cls-24, .cls-25, .cls-26 {
        stroke-width: 0px;
      }

      .cls-2 {
        fill: url(#linear-gradient);
      }

      .cls-3 {
        fill: #f8c96f;
      }

      .cls-4 {
        fill: #56340f;
      }

      .cls-5 {
        fill: #5c300e;
      }

      .cls-6 {
        fill: #c67f2f;
      }

      .cls-7 {
        fill: #f9ca7c;
      }

      .cls-8 {
        fill: url(#linear-gradient-5);
      }

      .cls-9 {
        fill: none;
      }

      .cls-10 {
        fill: #ffd676;
      }

      .cls-11 {
        fill: #fffcdc;
      }

      .cls-12 {
        fill: #ffeeab;
      }

      .cls-13 {
        fill: #703c10;
      }

      .cls-14 {
        fill: #fff0b0;
      }

      .cls-15 {
        fill: #f4c564;
      }

      .cls-16 {
        fill: url(#linear-gradient-2);
      }

      .cls-17 {
        fill: #e99735;
      }

      .cls-18 {
        fill: url(#linear-gradient-3);
      }

      .cls-19 {
        fill: #9b5215;
      }

      .cls-20 {
        fill: #52280b;
      }

      .cls-21 {
        fill: #f4b751;
      }

      .cls-22 {
        fill: #854a1b;
      }

      .cls-23 {
        fill: #fff;
      }

      .cls-24 {
        fill: #b59362;
      }

      .cls-25 {
        fill: url(#linear-gradient-4);
      }

      .cls-26 {
        fill: #b57c33;
      }
    </style>
    <linearGradient id="linear-gradient" x1="940.9" y1="1596.3" x2="940.9" y2="168.3" gradientUnits="userSpaceOnUse">
      <stop offset="0" stop-color="#703c10"/>
      <stop offset="1" stop-color="#f8c96f"/>
    </linearGradient>
    <linearGradient id="linear-gradient-2" x1="942.5" y1="1596.3" x2="942.5" y2="168.3" xlink:href="#linear-gradient"/>
    <linearGradient id="linear-gradient-3" x1="940.7" y1="207.4" x2="941" y2="240.3" xlink:href="#linear-gradient"/>
    <linearGradient id="linear-gradient-4" x1="938.2" y1="207.4" x2="938.5" y2="240.3" xlink:href="#linear-gradient"/>
    <linearGradient id="linear-gradient-5" x1="961.6" y1="207.2" x2="961.9" y2="240.2" xlink:href="#linear-gradient"/>
  </defs>
  <rect class="cls-9" x="3.6" width="1863.1" height="1692.4"/>
  <g>
    <path class="cls-3" d="M1699.9,146c-5,48-31.2,159.5-161.3,260.1,0,0-99.4,82.2-196.8,132.9-97.4,50.7-105.9,82.4-111.3,113.4-5.4,31,1,99.8-12.6,132.4-11.4,27.4-18.7,44.9-64.6,73.5-5.7,1.5-8.9,1.5-9,1.5,0,0,56.7-25.8,59.5-96,2.8-70.2-92.7-154.7,55.9-239,148.6-84.3,392.2-222.4,427.9-417.4,0,0,6.6,14.7,12.2,38.7Z"/>
    <path class="cls-19" d="M1639.2,386.1s-83.3,88.8-234.4,148.8c0,0-147.4,47-160,106.6-12.6,59.6,2.3,146.6-38.1,184.2-23.8,22.1-42.8,29.9-53.3,32.6,45.9-28.5,53.2-46.1,64.6-73.5,13.6-32.7,7.2-101.4,12.6-132.4,5.4-31,14-62.6,111.3-113.4,97.4-50.7,196.8-132.9,196.8-132.9,130.2-100.5,156.3-212.1,161.3-260.1,12.6,53.7,20.5,153.9-60.7,240.2Z"/>
    <path class="cls-3" d="M1767.1,322.3h0c-.8,1.9-47.7,103.8-179.6,197.6,0,0-89.2,67.2-191.2,97.8,13-13.7,26.8-30.3,22.7-34.9-7.4-8.2-54.6,35.9-60.2,40.8-.9.8-2.4,2-4.4,3.6-10.7,8.3-35.6,26.2-59.4,36.4,0,0-12,5-27.1,24.3h0s5.1-73.7,94-93.9c88.8-20.2,192-91.7,281.4-167.7,89.4-76.1,125.1-130.6,125.1-130.6,0,0,.5,10-1.2,26.4Z"/>
    <path class="cls-19" d="M1767.1,322.3c-4.9,46.9-27.9,146.5-133.1,216.5-141.9,94.5-257.4,98.6-257.4,98.6,0,0,9.6-8.9,19.7-19.6,101.9-30.6,191.2-97.8,191.2-97.8,131.9-93.8,178.7-195.8,179.6-197.6Z"/>
    <path class="cls-3" d="M1764.8,482.1c-.4,3.5-.9,7.5-1.6,11.8,0,0-31.6,92.9-209.3,165.9,0,0-67.9,24.8-149.1,42,5.7-5.4,23.1-26.6,26.6-29.7,3.4-3.2.5-8.1-6.4-4.9-9.4,4.4-54.4,28-65.9,35.5-11.5,7.5-16.4,7.2-40.2,16-23.5,8.7-41.9,21.1-42.5,21.5,21.2-54.4,70.4-61.9,103.7-68.3,33.4-6.5,61.8-14.1,61.8-14.1,201.9-53.4,322.9-175.7,322.9-175.7Z"/>
    <path class="cls-19" d="M1763.1,493.9c-7.2,44.2-32.5,125.7-129.3,174.1-106.2,53.1-245.9,46.6-245.9,46.6,0,0,11.1-7.4,16.9-12.8,81.2-17.2,149.1-42,149.1-42,177.7-73,209.3-165.9,209.3-165.9Z"/>
    <path class="cls-3" d="M1734.6,683.3s-.7,1.7-2.2,4.8c0,0-173.9,121-354.1,79.2,9.6-4.6,16.9-9,15.9-11.2-2.6-6-49.9,3.2-69.1,9.6-19.2,6.4-45,15.7-62.1,25.6,0,0,20.8-38.6,56.8-40.7,36-2,257.6,1.5,414.9-67.4Z"/>
    <path class="cls-19" d="M1732.5,688.1c-13.9,28.3-99.9,170.3-393.1,95.6,0,0,22.7-8.5,38.9-16.3,180.2,41.8,354.1-79.2,354.1-79.2Z"/>
    <path class="cls-19" d="M1624.3,831.2c-140.2,137.1-362.9-5.2-362.9-5.2,4.2-3.5,8.6-6.2,13.1-8.3,44.1,21.8,92.7,33.5,118.9,38.7,12.2,2.4,24.5,3.9,36.9,4.6,123.1,6.4,193-29.2,194-29.7Z"/>
    <path class="cls-3" d="M1624.3,831.1h0c-1,.5-70.9,36.1-194,29.8-12.4-.7-24.7-2.2-36.9-4.6-26.3-5.2-74.8-16.8-118.9-38.7,23-10.6,46.8-3.7,46.8-3.7,138.2,43.9,303,17.1,303,17.1Z"/>
    <path class="cls-3" d="M1498.8,934.5c-12.9,6.4-25.4,11.4-37.7,15.1-2.3.2-99,6.6-190.9-61,0,0-39.2-27.5-56.4-46.4.4-1.7.9-2.5.9-2.5,185.2,105,284,94.9,284,94.9Z"/>
    <path class="cls-19" d="M1461.1,949.6c-128.2,39-218.3-59.2-235.1-77.6-13.5-14.8-13.2-25.2-12.1-29.8,17.2,18.9,56.4,46.4,56.4,46.4,91.8,67.6,188.6,61.2,190.9,61Z"/>
    <path class="cls-3" d="M1344.2,992.8c-4.1.2-8.2.3-12.2.3h0c-108.2-25-152.3-107.1-153-108.3,19.1,10.4,52.5,34.3,80,56.5,38.8,31.3,85.1,51.4,85.1,51.4Z"/>
    <path class="cls-19" d="M1332,993.1c-128.8.2-172.9-108.7-167.7-113.2,1.6-1.3,6.9.7,14.8,4.9h0c.6,1.2,44.7,83.2,153,108.3Z"/>
    <path class="cls-3" d="M1203,988.7s-1.4.2-3.8.1c-53.2-39.1-81.6-96.3-82.1-97.2,5.9,4.1,12.2,9.8,17.5,17.4,15.7,22.5,50,62.3,68.4,79.7Z"/>
    <path class="cls-19" d="M1199.2,988.8c-7.4-.1-24.4-2-40.9-15.4-22-17.9-51.8-61.8-62.7-91.9,0,0,10.1,2.2,21.6,10.2h0c.4.9,28.9,58.1,82.1,97.2Z"/>
    <path class="cls-19" d="M1131,984.6s-31.7.3-55-24.9c-23.3-25.2-42.4-48.5-39.7-76.4,0,0,6.4.9,15.2,7.4,0,0-2.4,25.8,67.4,82,4.1,4.5,8.2,8.5,12,11.8Z"/>
    <path class="cls-3" d="M1119.1,972.8c-69.8-56.2-67.4-82-67.4-82,4.3,3.2,9.2,7.7,14.2,14.2,12.5,16.1,33.9,46.8,53.2,67.8Z"/>
    <path class="cls-19" d="M1354.4,627.3c-10.7,8.3-35.6,26.2-59.4,36.4,0,0-12,5-27.1,24.3.4-.7,11.6-18.4,30.9-39,14.3-15.2,41.7-20.2,55.6-21.8Z"/>
  </g>
  <g>
    <path class="cls-3" d="M177.9,146c5,48,31.2,159.5,161.3,260.1,0,0,99.4,82.2,196.8,132.9,97.4,50.7,105.9,82.4,111.3,113.4,5.4,31-1,99.7,12.6,132.4,11.4,27.4,18.7,44.9,64.6,73.5,5.7,1.5,8.9,1.5,9,1.5,0,0-56.7-25.8-59.5-96-2.8-70.2,92.7-154.7-55.9-239-148.6-84.3-392.2-222.4-427.9-417.4,0,0-6.6,14.7-12.2,38.7Z"/>
    <path class="cls-19" d="M238.6,386.1s83.3,88.8,234.4,148.8c0,0,147.4,47,160,106.6,12.6,59.6-2.3,146.6,38.1,184.2,23.8,22.1,42.8,29.9,53.3,32.6-45.9-28.5-53.2-46.1-64.6-73.5-13.6-32.7-7.2-101.4-12.6-132.4-5.4-31-14-62.6-111.3-113.4-97.4-50.7-196.8-132.9-196.8-132.9-130.2-100.5-156.3-212.1-161.3-260.1-12.6,53.7-20.5,153.9,60.7,240.2Z"/>
    <path class="cls-3" d="M110.6,322.3h0c.8,1.9,47.7,103.8,179.6,197.6,0,0,89.2,67.2,191.2,97.8-13-13.7-26.8-30.3-22.7-34.9,7.4-8.2,54.6,35.9,60.2,40.8.9.8,2.4,2,4.4,3.6,10.7,8.3,35.6,26.2,59.4,36.4,0,0,12,5,27.1,24.3h0s-5.1-73.7-94-93.9c-88.8-20.2-192-91.7-281.4-167.7-89.4-76.1-125.1-130.6-125.1-130.6,0,0-.5,10,1.2,26.4Z"/>
    <path class="cls-19" d="M110.6,322.3c4.9,46.9,27.9,146.5,133.1,216.5,141.9,94.5,257.4,98.6,257.4,98.6,0,0-9.6-8.9-19.7-19.6-101.9-30.6-191.2-97.8-191.2-97.8-131.9-93.8-178.7-195.8-179.6-197.6Z"/>
    <path class="cls-3" d="M113,482.1c.4,3.5.9,7.5,1.6,11.8,0,0,31.6,92.9,209.3,165.9,0,0,67.9,24.8,149.1,42-5.7-5.4-23.1-26.6-26.6-29.7-3.4-3.2-.5-8.1,6.4-4.9,9.4,4.4,54.4,28,65.9,35.5,11.5,7.5,16.4,7.2,40.2,16,23.5,8.7,41.9,21.1,42.5,21.5-21.2-54.4-70.4-61.9-103.7-68.3-33.4-6.5-61.8-14.1-61.8-14.1-201.9-53.4-322.9-175.7-322.9-175.7Z"/>
    <path class="cls-19" d="M114.6,493.9c7.2,44.2,32.5,125.7,129.3,174.1,106.2,53.1,245.9,46.6,245.9,46.6,0,0-11.1-7.4-16.9-12.8-81.2-17.2-149.1-42-149.1-42-177.7-73-209.3-165.9-209.3-165.9Z"/>
    <path class="cls-3" d="M143.1,683.3s.7,1.7,2.2,4.8c0,0,173.9,121,354.1,79.3-9.6-4.6-16.9-9-15.9-11.2,2.6-6,49.9,3.2,69.1,9.6,19.2,6.4,45,15.7,62.1,25.6,0,0-20.8-38.6-56.8-40.7-36-2-257.6,1.5-414.9-67.4Z"/>
    <path class="cls-19" d="M145.3,688.1c13.9,28.3,99.9,170.3,393.1,95.6,0,0-22.7-8.5-38.9-16.3-180.3,41.8-354.1-79.3-354.1-79.3Z"/>
    <path class="cls-19" d="M253.4,831.2c140.2,137.1,362.9-5.2,362.9-5.2-4.2-3.5-8.6-6.2-13.1-8.3-44.1,21.8-92.7,33.5-118.9,38.7-12.2,2.4-24.5,3.9-36.9,4.6-123.1,6.4-193-29.2-194-29.8Z"/>
    <path class="cls-3" d="M253.4,831.1h0c1,.5,70.9,36.1,194,29.8,12.4-.7,24.7-2.2,36.9-4.6,26.3-5.2,74.8-16.8,118.9-38.7-23-10.6-46.8-3.7-46.8-3.7-138.2,43.9-303,17.1-303,17.1Z"/>
    <path class="cls-3" d="M378.9,934.5c12.9,6.4,25.4,11.4,37.7,15.1,2.3.2,99,6.6,190.9-61,0,0,39.2-27.5,56.4-46.4-.4-1.7-.9-2.5-.9-2.5-185.2,105-284,94.9-284,94.9Z"/>
    <path class="cls-19" d="M416.6,949.6c128.2,39,218.3-59.2,235.1-77.6,13.5-14.8,13.2-25.2,12.1-29.8-17.2,18.9-56.4,46.4-56.4,46.4-91.8,67.6-188.6,61.2-190.9,61Z"/>
    <path class="cls-3" d="M533.6,992.8c4.1.2,8.2.3,12.2.3h0c108.2-25,152.3-107.1,153-108.3-19.1,10.4-52.5,34.3-80,56.5-38.8,31.3-85.1,51.4-85.1,51.4Z"/>
    <path class="cls-19" d="M545.8,993.1c128.8.2,172.9-108.7,167.7-113.2-1.6-1.3-6.9.7-14.8,4.9h0c-.6,1.2-44.7,83.2-153,108.3Z"/>
    <path class="cls-19" d="M523.4,627.3c10.7,8.3,35.6,26.2,59.4,36.4,0,0,12,5,27.1,24.3-.4-.7-11.6-18.4-30.9-39-14.3-15.2-41.7-20.2-55.6-21.8Z"/>
  </g>
  <path class="cls-19" d="M1372.7,1177.6c-13.6,70.1-50.2,109-95.4,130.9-45.2,21.9-109.7,6.5-125.1,0-13.2-5.5-52.9-20.2-52.9-20.2,67.2,42.7,148.7,40.6,153.2,40.4-70.6,19.8-136.5-5.6-172.1-28.5-36.7-23.6-84-37.9-101.2-42.7,31.6-4.9,89.6,5.7,114,12.7,27.7,8,81.3,45.2,162.2,24.7,80.3-20.3,116.7-115.8,117.3-117.2Z"/>
  <path class="cls-3" d="M1312.8,1300.2c-20.1,13.8-40.3,23-60.2,28.5-4.6.2-86.1,2.2-153.2-40.4,0,0,39.6,14.7,52.9,20.2,15.4,6.5,79.9,21.9,125.1,0,45.2-21.9,81.8-60.8,95.4-130.9-.6,1.5-37,96.9-117.3,117.2-80.9,20.5-134.5-16.7-162.2-24.7-24.4-7-82.4-17.6-114-12.7h0c-4.2-1.2-6.7-1.8-6.7-1.8,13.3-10.2,73.9-32.7,152.3,4.1,78.5,36.8,124.6,0,124.6,0,61.5-50.8,2.5-102.5,0-104.6,51.7,35.5,37.8,71.9,30.2,89.3-7.6,17.4-34,34-34,34,7.8,0,94-29.4,81.5-121.9-12.4-92.4-100.3-100.2-100.3-100.2,124.6-13.5,127.4,121.7,127.4,121.7,15.8-22.7,11-75.6,11-75.6,9.7,18.4,38.8,134.8-52.6,197.6Z"/>
  <path class="cls-19" d="M1154.5,1226s-16.9-114.2-136.9-148.9c0,0,62.6,2.8,101.9,50,39.3,47.2,35,98.9,35,98.9Z"/>
  <path class="cls-19" d="M905.5,1171.1c-2.2,79.3,73.7,117.5,73.7,117.5-64.4-17.5-86.7-62.8-94.3-95-2.8-12.2-3.6-24.6-2.4-36.9,0,0,0,0,0,0,.6-2.4,20.8-80.4,103-101.2,33.2-8.4,59.6-.4,79.4,12.2-26.3-9.2-47.2-9.2-47.3-9.2-42.1,0-109.9,33.4-112.2,112.7Z"/>
  <path class="cls-3" d="M1170.9,1240.9c0-115.1-60.9-157.6-105.9-173.3,0,0,0,0,0,0-19.8-12.6-46.3-20.6-79.4-12.2-82.2,20.8-102.4,98.8-103,101.2.8-8,2.4-15.9,4.9-23.7,23.2-73.1,78.7-90.9,103.4-95.3-149.7,20-133.4,135.6-125.4,169,1.2,5.1,2.8,10.2,4.9,15,39.6,92.3,146.1,114.1,146.1,114.1-51.1-6.2-77.9-24.3-80.3-26,15.5,12.3,30.3,21.5,44.2,28.3-163.2-60.1-138.7-184.8-138.3-186.7-51,88.8,30,166.4,30,166.4,92.6,81.1,186,46.7,204.9,38.5-18.6,14.2-104.7,59.9-198.5-8.5-97-70.8-85.1-182.8-85.1-182.8,0,0,17-112,106.6-152.5,89.5-40.5,169.2,0,169.2,0,63.2,28.7,92.2,92.2,92.2,92.2,34.7,67.4,9.5,136.2,9.5,136.2Z"/>
  <path class="cls-3" d="M893.3,1394.9c-128.5-17-179-101.7-179.7-102.9.5.2,16.1,8.4,31.2,12.4,0,0,29.8,57.1,147.1,90.1,0,0,.2,0,.3,0,.4.1.7.2,1.1.3Z"/>
  <path class="cls-19" d="M891.7,1394.4c-.9-.3-1.8-.5-2.7-.8-.9-.3-1.8-.5-2.7-.8-2.7-.8-5.3-1.6-7.9-2.4-.9-.3-1.7-.5-2.6-.8-4.3-1.4-8.4-2.8-12.4-4.2-.8-.3-1.6-.6-2.4-.9-2.7-1-5.2-1.9-7.8-2.9-1.2-.5-2.5-1-3.7-1.5-1-.4-2-.8-3-1.2-.5-.2-.9-.4-1.3-.6-5.3-2.2-10.3-4.4-15.1-6.7-1.1-.5-2.2-1-3.3-1.6-.6-.3-1.3-.6-1.9-.9-1.2-.6-2.4-1.2-3.6-1.8-4.3-2.2-8.4-4.4-12.3-6.7-2.1-1.2-4.2-2.5-6.3-3.7,0,0,0,0-.1,0-.5-.3-1-.6-1.5-.9-2-1.2-4-2.5-5.9-3.7-.9-.6-1.8-1.2-2.7-1.8,0,0-.1,0-.2-.1-1.3-.9-2.6-1.8-3.8-2.6-.5-.3-.9-.7-1.4-1-.9-.6-1.7-1.2-2.5-1.8-.4-.3-.8-.6-1.2-.9-1.1-.8-2.2-1.6-3.2-2.4-.2-.2-.4-.3-.6-.4-.7-.5-1.3-1-1.9-1.5,0,0,0,0,0,0-1.1-.9-2.1-1.7-3.2-2.6,0,0,0,0,0,0-.7-.6-1.3-1.1-2-1.7-.7-.6-1.3-1.2-2-1.7-.6-.6-1.2-1.1-1.8-1.6,0,0,0,0,0,0-1.5-1.4-2.9-2.7-4.3-4,0,0,0,0,0,0-.8-.8-1.6-1.5-2.3-2.3s-.5-.5-.8-.8c-.5-.5-.9-1-1.4-1.4-2.1-2.2-3.9-4.2-5.6-6.1-.3-.4-.7-.8-1-1.2-6-7.2-8.3-11.7-8.3-11.7,0,0-13.9-51.5-6-98.5,9.6,23.1,30.6,47.2,30.6,47.2,23.1,107,109,137.2,122.1,141.2Z"/>
  <path class="cls-17" d="M996.8,719c-2.8,2.5-5.6,4.7-8.4,6.2-17.4,9.7-5.4-57.9-5.4-57.9,0,0,11.4,9.5,13.1,22.3,0,0,0,0,0,.2,0,0,0,0,0,.1h0c.3,2.4,2.3,17.3.7,29Z"/>
  <path class="cls-14" d="M1042,702.5h0c-.4,3.1-10.5,83.8-100.7,143.7-91.9,61-139.5,118.3-165.9,165.9-26.3,47.5-55,146.1-7.3,235.3.8,3.8,1.4,5.8,1.4,5.8,0,0-21.1-24.1-30.6-47.2,0,0-6-16.1-9.1-42.3h0c-1.7-14.6-2.6-32.3-1-52.2.2-2,.3-4.1.6-6.2,1.8-17.7,5.6-37,12.4-57,0,0,0,0,0,0,4.8-14.2,11.1-28.8,19.3-43.6,0,0,0,0,0,0,.8-1.4,1.5-2.8,2.3-4.2,3.9-6.8,7.8-13.2,11.6-19.2,8.3-13.1,16.3-24.3,24.2-34.1,0,0,0,0,0,0h0c9.3-11.6,18.3-21.2,27.2-29.5t0,0c8.4-7.8,16.7-14.6,25-20.8,0,0,0,0,0,0,18.4-13.9,37.1-25.6,57.6-42h0c7.4-5.9,15-12.5,22.9-20,4.9-4.7,9.7-9.3,14.1-13.8,0,0,0,0,0,0,4.2-4.2,8.2-8.4,12-12.4,42.8-45.7,60.4-79.2,61.3-81-.6.9-6.6,10.8-17.2,23.1h0s0,0,0,0c-.9.7-16.4,12.6-37.6,20.7-22,8.3-64.7,32.3-64.7,32.3,0,0,8.9-32.7,62-66.6,0,0-1.1,19.5,9.8,21.2,10.9,1.7,64.2-45.2,54.5-77.4,0,0-14.4,24.5-29.3,38,1.7-11.7-.3-26.6-.7-29,.4,0,13-2.8,17.5-17,4.6-14.5,8.7-35.1,2-47.3-6.6-12.3-7.9-3.7-8.3,2.6-.3,6.3-1.6,23.7-5,25.2-1.9.8-6.1,1.4-14.8-5.5,0,0,4-6.3.5-11.6-3.6-5.2-20.4-9.1-20.4-9.1-3.7-4.5-7.8-9.8-12.3-16,0,0,21.7,2.8,37,13.8,0,0,12.2-29-12.2-46.8,0,0,50.7,13.8,60.4,101.1.9,8,1.3,15.8,1.4,23.3Z"/>
  <path class="cls-19" d="M1042,702.6c.2,74.8-41.3,128.7-111.5,190.8-77.3,68.4-91.2,133.1-91.2,133.1-3.3-51.1,35.5-86.2,36.9-87.5-1.7.8-55.7,25.8-92.9,126.8-32,86.9-19.7,160.9-15.2,181.6-47.7-89.2-19-187.8,7.3-235.3,26.4-47.6,74-104.9,165.9-165.9,90.2-59.9,100.3-140.6,100.7-143.7Z"/>
  <path class="cls-19" d="M729.8,1163.6h0c-.2.8-10.6,37.1-12.6,86.8-39.3-84.5,11.5-139,11.5-139-1.6,19.8-.7,37.5,1,52.1Z"/>
  <path class="cls-3" d="M728.8,1111.5s-50.9,54.5-11.5,139c-.2,4.2-.3,8.4-.3,12.7,0,0-51.2-17.6-56-111.7,0,0,16.5,26,23.8,25.3,7.3-.7,14.1-43.6,44.6-71.5-.2,2.1-.4,4.2-.6,6.2Z"/>
  <path class="cls-3" d="M775,981.2c-3.8,6-7.7,12.4-11.6,19.2-.8,1.4-1.6,2.8-2.3,4.2,0,0,0,0,0,0-1.2.7-85.4,47.9-76.6,121.1-2.2,3.9-3.3,6.3-3.3,6.3,0,0-44.4-49,1.5-128.7,0,0-2.1,27.6,12.7,41.7,0,0,38-43.8,79.6-63.8Z"/>
  <path class="cls-1" d="M826.4,917.6c-8.9,8.3-17.9,17.9-27.2,29.5h0s0,0,0,0c-1,.8-18,11.1-37.3,22.6-20.3,12.1-38,15.3-54.9,32.4,0,0-1.6-3.7-2.4-10.2,29-49.9,120.4-74,121.8-74.4Z"/>
  <path class="cls-3" d="M851.4,896.8c-8.3,6.3-16.6,13-25,20.8t0,0c-1.4.4-92.8,24.5-121.8,74.4-2.3-17.8.6-56.4,55.2-97.2,0,0-5.5,35.8.3,36.9,5.8,1.1,90-34.3,91.3-34.9Z"/>
  <path class="cls-15" d="M946,821c-4.5,4.5-9.2,9.1-14.1,13.8-7.9,7.5-15.5,14-22.9,19.9h0c-1.2.5-75.4,34.2-124.9,38.8,0,0,0-1.5.7-4.2,6.8-12.2,65.7-38.9,100.5-47.9,34.2-8.9,59.9-20.1,60.8-20.4Z"/>
  <path class="cls-12" d="M958,808.6c-3.8,4-7.8,8.2-12,12.4,0,0,0,0,0,0-.8.4-26.6,11.5-60.8,20.4-34.7,9-93.7,35.7-100.5,47.9,2.7-12.6,16.8-50.8,88.9-76.3,0,0-8.3,14.7-3,17.5,5.4,2.8,54.3.3,87.3-21.9Z"/>
  <path class="cls-1" d="M761,1004.6c-8.2,14.8-14.5,29.4-19.3,43.6,0,0,0,0,0,0-.5.9-17.7,29.4-34.6,46.8-11.1,11.4-18.7,23.5-22.6,30.6-8.8-73.2,75.3-120.4,76.6-121.1Z"/>
  <path class="cls-7" d="M1002.1,750.8c-20.1,23.3-56.4,55.5-102.3,53.1,0,0,42.7-24,64.7-32.3,21.3-8.1,36.7-20,37.6-20.7Z"/>
  <path class="cls-19" d="M987.6,647.9c-5-4-11.5-10.4-19.9-20.7,0,0,16.8,3.9,20.4,9.1,3.6,5.2-.5,11.6-.5,11.6Z"/>
  <path class="cls-19" d="M1078.6,1355c-.5.4-1,.9-1.7,1.4-18.9,8.3-112.3,42.6-204.9-38.5,0,0-81-77.6-30-166.4-.4,1.9-24.9,126.5,138.3,186.7,57,28.3,97.2,17.1,98.3,16.8Z"/>
  <path class="cls-10" d="M1105.2,799.7s0-29.2-8.6-46.6c-8.7-17.4-13-27-15.9-26.6-2.9.4-3.1,7.2-2.9,12.9.2,5.6.7,47.3-19.4,78.6-19.3,29.9-64.2,85.8-118.3,107.7.3-.2,5.9-4.3,14.5-11.7h0c.9-.5,55.4-32.5,90.4-91.2,35.2-59.2,34.2-115.2,34.2-115.2,0,0,14.2,7.7,20.2,30.2-.3-2.1-10.9-64.6-22.7-97.3.1.2.2.3.4.4,7.3,7.3,63.2,67.7,28.2,158.9Z"/>
  <path class="cls-10" d="M1134.5,678.9s-19-43.3-55.6-52.4c-2.4-.6-4.6,1.5-4.2,3.9l1.4,8.4c-.8-2.1-1.6-4.1-2.4-6-13.3-29.9-6.2-44.9-34.4-65,0,0,0,0,0,0-1.5-1.6-3.7-3.5-6.8-5.2-10.8-5.8-13.3-5.9-13.4-5.9.4,0,13.6.4,14-2.3.4-2.8-2.6-3.7-2.6-3.7,0,0,10.1-5.6,9.5-7.5-.9-3-29.1-3.4-31.6-3.4,0,0,37.8-23,93.6,20.6-1-.3-47.9-15.7-63-1.2,0,0-2.8,2.1-.5,3.7,2.3,1.6,87.7,21.3,96.2,115.9Z"/>
  <path class="cls-13" d="M1079.2,707.6s1,55.9-34.2,115.2c-34.9,58.8-89.5,90.7-90.4,91.2,32-27.7,106-103,110.4-209.4,0,0,6.8-85.5-53.4-140.7,0,0,21.4,4.7,26.5,8.4,3.6,2.7,4.8-.4,1.1-4.5,28.2,20.1,21.2,35.2,34.4,65,.8,1.8,1.6,3.8,2.4,6v.2c.1.5.3,1,.6,1.4,11.9,32.8,22.4,95.2,22.7,97.3-6-22.4-20.2-30.2-20.2-30.2Z"/>
  <path class="cls-26" d="M1154.5,445.4c-5.4,44.9-58.6,69.1-95.7,67.7-37.2-1.4-66.8,1.5-89.6,11.2-22.8,9.7-49.3,12-49.3,12,0,0,18.7-12.5,42-21.5,13.8-5.4,32.2-8.6,44.8-10.3h0c5.7-.8,10.3-1.2,12.7-1.5.3,0,.5,0,.7,0,.2,0,.4,0,.5,0,.2,0,.4,0,.6,0,17.7-1.4,32.1-.4,50.1-2.3,7.8-.8,16.2-2.2,25.9-4.6,37.7-9.2,53.5-44.5,53.5-44.5,2.7-3.6,3.8-6,3.8-6Z"/>
  <path class="cls-20" d="M1071.4,500.5c-18,1.9-32.4,1-50.1,2.3,0,0-57.6-10.6-84.9-3.9.7-.4,24.5-15.2,48.8-11.4,24.6,3.8,59.1,12.4,86.2,13Z"/>
  <path class="cls-26" d="M903.7,628.5c-.3-.1-5.7-2-13.8-4.9-8.3-3-19.4,7-30,10.2-10.6,3.2-24.5,24.1-34,35.4-9.4,11.3-21.1,15.8-24.2,11.2-3.1-4.6,31-35.4,36.8-39.4,5.8-3.9,11.2-4.5,11.2-4.5-4.3,0-8.9-1.8-16.2-4.3-2.2-.8-4.9,0-7.8,1.6.6-1.2,4.7-8.9,12-10.7,8-2,31.9-9.9,39.2-18.6,7-8.5,11.7-16.1,19.9-17.1,0,0-.1,0-.1,0,15.7,1.6,25.1,16.8,25.3,17.3-2.2-1.5-27.2-7.8-32.4-1.6-5.1,6.2,13.3,24.6,14,25.3Z"/>
  <path class="cls-21" d="M940.1,572.3c-8.3,3.8-16.9,7.2-22.8,8.2-13.1,2.2-19.4,6.3-20.3,7-8.2,1-12.8,8.6-19.9,17.1-7.2,8.7-31.2,16.6-39.2,18.6-7.4,1.8-11.5,9.5-12,10.7-6.6,3.8-14.5,12.4-21.3,19.2-5.8,5.8-11.7,13.5-15.6,18.9,0,0-13.1-16.7-18.8-24-1.9-2.4-3.8-4-5.6-5,3.5-6.2,8.7-1.7,8.7-1.7,8.4-6.2,23.2-38.6,23.2-38.6l-4.8-2c5.8-5.3,12.5-18.7,15.2-27.6,2.7-8.9,14.6-23.7,21.2-29.1,6.6-5.4,19-22,25.7-31.5,6.3-9.1,23.6-27.2,25.2-28.8-9,11.1-13.5,38.2-13.5,38.2,0,0-4.2,11.7-9.7,14.4-5.4,2.7-10.8,3.8-19.5,16.1-8.7,12.2-9.7,14.6-7.5,15.6,2.2,1,7.4-6.5,10.5-7.7,3.1-1.2,31.2-16,39-17.4,0,0,25.6-27.8,43.8-36.2-17,15.3-26.3,45.6-26.3,45.6,0,0-11,1.6-10.8,5.5.1,3.8,68.6,2.8,73.5,3.9-7.7,1.6-23.1,5-31.5,8.8-11.5,5.2-35.6,8.6-35.6,8.6,4.5,1,16.5.9,26.7-3.1s21.9-3.4,21.9-3.4Z"/>
  <path class="cls-6" d="M789,671.9c-2.7,3.8-4.4,6.4-4.4,6.4-12.9-6.4-21-18.3-26.1-28.5-1.3-2.7-1.2-5.6-.2-8.6,0,0,2.8-.3,6.3,1.7,1.8,1,3.7,2.6,5.6,5,5.7,7.3,18.8,24,18.8,24Z"/>
  <path class="cls-26" d="M1033.5,416.1c-13.6,31.6-47.7,33.9-72.4,38.1-24.7,4.2-51.2,22-51.2,22,1.4-2.2,12.5-13.6,14.5-15.4,1-.9,1.7-4.1-1.4-4.2,11.4-13.2,39.2-12.3,73.6-26.5,31.4-13,36.2-43.8,36.8-49.3,3.9,10.5,5.5,22.9,0,35.4Z"/>
  <path class="cls-11" d="M1150.8,451.4s-15.9,35.3-53.5,44.5c-9.6,2.3-18.1,3.7-25.9,4.6-27.1-.6-61.6-9.2-86.2-13-24.2-3.8-48.1,11-48.8,11.4h0c-3.4.8-6.4,2-8.7,3.4-1.9,1.2-3.8,2.6-5.5,4.2-18.2,8.4-43.8,36.2-43.8,36.2-7.7,1.4-35.9,16.3-39,17.4-3.1,1.1-8.2,8.7-10.5,7.7-2.2-1-1.2-3.4,7.5-15.6,8.7-12.3,14-13.4,19.5-16.1,5.4-2.7,9.7-14.4,9.7-14.4,0,0,4.5-27.1,13.5-38.2-1.6,1.6-18.9,19.7-25.2,28.8-6.6,9.6-19,26.2-25.7,31.5-6.6,5.4-18.5,20.2-21.2,29.1-2.7,8.9-9.4,22.3-15.2,27.6l4.8,2s-14.8,32.4-23.2,38.6c0,0-5.2-4.5-8.7,1.7-3.5-2-6.3-1.7-6.3-1.7,2.8-8.6,12.9-18.3,18.3-26.9,7.3-11.6,6.3-22.9,4.7-30.5-1.6-7.6-1.4-15.9-1.4-15.9,1.1,3.7,5.4,5.3,5.4,5.3,0,0,6.6-30.6,13.9-43.4,7.3-12.8,8-28.2,8-28.2,0,0,5.6,13.8,5.4,22.9-.2,8.9-7.8,22.5-8,22.9,4.7-5.9,36.6-39.8,51.7-55.8,5.9-6.2,12.1-12,18.7-17.4,48.2-39.4,64.7-36.7,115.7-55,54.6-19.6,25.4-66.2,25.4-66.2,0,0,11.5,11.6,17.4,27.8-.6,5.5-5.4,36.3-36.8,49.3-34.4,14.2-62.2,13.3-73.6,26.5h0c-3.1-.2-10.1,2.6-24.5,13.6-28.8,22-36,63.7-36,63.7,22-16.7,43.1-29.9,52.4-35.6,3.2-2,6.6-3.7,10-5.3,81-36.6,78.3-7,145.7-9.4,50.8-1.8,72.4-21.8,80.2-32.1Z"/>
  <path class="cls-11" d="M966.3,558.7c-.7.4-1.7,1-3.1,1.8h0c-.2,0-1.9.4-4.7.9-4.8-1-73.3,0-73.5-3.9-.1-3.8,10.8-5.5,10.8-5.5,21.7-1.4,70.5,6.6,70.5,6.6Z"/>
  <path class="cls-20" d="M963.2,560.5c-4.9,2.8-13.9,7.6-23.1,11.8,0,0-11.7-.6-21.9,3.4s-22.2,4.1-26.7,3.1c0,0,24.1-3.4,35.6-8.6,8.4-3.8,23.7-7.2,31.5-8.8,2.8-.5,4.5-.9,4.7-.9Z"/>
  <path class="cls-26" d="M873.2,439c-26.4,12.9-42.2,47.4-42.2,47.4-2.9-10.7-2.8-19.6-.8-27,10.8-17.4,37.1-24.1,53.8-43.5,15.7-18.3,5.8-38.1,3.9-41.5,21.9,19.5,9.2,52.9-14.8,64.6Z"/>
  <path class="cls-10" d="M884,415.9c-16.7,19.4-43,26.1-53.8,43.5,6.7-24.7,34.8-34.4,47.9-49.3,17.1-19.4,2.2-41.2,2.2-41.2,2.8,1.6,5.3,3.3,7.4,5.2,0,0,.2.1.2.2,1.9,3.4,11.8,23.3-3.9,41.5Z"/>
  <path class="cls-20" d="M795.1,642.7s-3.8-13.5,8.8-24.5c12.6-11,18-19.2,19.7-27.8s11.6-13.3,19.3-16.9c7.7-3.6,24.4-15.4,26.9-19.2,2.5-3.8,10.1-15,17.4-20.7,0,0-5.8,7.2-10.9,24.1s-5.5,32.9-20.3,43.1c-14.7,10.2-22,3.5-22,3.5,0,0-3.5,8.2-12.6,14.5-9.1,6.3-22.7,19.4-26.1,23.7"/>
  <path class="cls-23" d="M856.7,581.3s-15.9.5-17.5,11.7c0,0,6.3.7,10.6-2.7,4.3-3.5,6.9-8.9,6.9-8.9Z"/>
  <g>
    <path class="cls-2" d="M680,254.5c68.4-28.9,140.2-46.1,214.2-51.3l-29.9,33c-59.4,7.1-117.3,22.5-172.7,46-69.7,29.5-133,70.5-188.3,122.2,10.4,6.7,20.7,13.2,31,19.5,94.3-85.3,215.3-141.5,348.8-154.4,10.1-1,20.3-1.7,30.6-2.2l-22.7-24.7,8.7-9.6,28.3-31.2,12.1-13.4,11.3,13.3,26.2,30.9,8.5,10-21.9,24.4c10.3.4,20.5,1,30.6,1.8,134.9,11.5,257.3,67.2,352.9,152.4,10.2-6.3,20.6-12.9,31-19.6-54.7-50.4-116.9-90.5-185.4-119.5-58.3-24.6-119.2-40.4-181.9-47l-27.4-32.4c76.4,4.6,150.5,21.9,221,51.8,74,31.3,141,75,199.4,130.1,12.6-8.5,25.1-17.3,37.5-26.4-63.9-61.7-137.7-110.5-219.4-145.1-88-37.2-181.5-56.3-277.7-56.6h-2.2c-2,0-3.9,0-5.9,0-95,.8-187.1,19.8-274,56.5-83.1,35.1-157.9,84.9-222.5,148.1,12.4,9,25,17.8,37.6,26.2,59.2-56.4,127.2-101.1,202.4-132.9Z"/>
    <path class="cls-16" d="M1661.7,875.7c0,15.4-.5,30.7-1.4,46-.3,5.3-.7,10.7-1.2,16-6.4,75.2-24.5,148.3-53.9,218-36.2,85.7-88.1,162.6-154.1,228.6-66,66-142.9,117.9-228.6,154.1-84.7,35.8-174.4,54.8-266.8,56.4-4.4,0-8.8.1-13.2.1s-10.5,0-15.8-.2c-91.5-1.9-180.3-20.9-264.2-56.4-85.7-36.2-162.6-88.1-228.6-154.1-66-66-117.9-142.9-154.1-228.6-28.1-66.4-45.8-135.8-52.9-207.2-.5-5.3-1-10.6-1.4-16-1.5-18.8-2.2-37.7-2.2-56.8s0-3.1,0-4.6,0-3.1,0-4.6l6.5,4.3c.8.7,1.5,1.4,2.3,2.1,1.5,1.3,3.1,2.7,4.6,4,.9.8,1.8,1.5,2.7,2.3,1.4,1.2,2.9,2.3,4.3,3.5,1.6,1.2,3.2,2.5,4.8,3.7.7.6,1.5,1.1,2.2,1.6,1.8,1.3,3.7,2.6,5.5,3.9.7.5,1.4,1,2.1,1.4.8.5,1.6,1,2.3,1.6,2.6,1.7,5.2,3.3,7.8,4.9.7,20.7,2.4,41.2,4.9,61.5.7,5.4,1.4,10.7,2.2,16.1,8.3,55.3,23.5,109.1,45.5,161,34,80.3,82.6,152.4,144.5,214.3,61.9,61.9,134,110.5,214.3,144.5,66.3,28.1,135.9,45.1,207.6,50.8l-27.4-33c-58-7.4-114.4-22.6-168.5-45.5-76.7-32.4-145.6-78.9-204.8-138-59.2-59.2-105.6-128-138-204.8-18.5-43.7-31.9-88.8-40.3-135.1-1-5.4-1.9-10.7-2.7-16.1-3-19.3-5.1-38.8-6.3-58.5,0-.5,0-1-.1-1.5,4,1.7,8.1,3.3,12.3,4.8,7.7,2.8,15.6,5.2,23.7,7.2.4,4.7.9,9.4,1.4,14,1.7,15.7,4,31.2,6.8,46.6,1,5.4,2.1,10.8,3.3,16.2,55.3,256.7,272.8,453.9,539.6,478.3,12.1,1.1,24.3,1.9,36.6,2.2l-27.9,33.6-3.1,3.7,22.8,27.5,26.2,27.1,26.3-27,22.9-27.6-2.9-3.5-28-33.7c10.7-.3,21.3-.9,31.8-1.7,271.5-21.6,493.5-222.1,547.7-483.2,1.1-5.3,2.2-10.7,3.1-16,2.9-15.9,5.1-31.9,6.7-48.2.3-3.4.6-6.8.9-10.2,5.5-1.6,11-3.3,16.3-5.3,4.3-1.5,8.5-3.2,12.7-5,2.3-1,4.6-2,6.9-3.1-1.1,19.3-3,38.5-5.8,57.5-.8,5.4-1.6,10.8-2.6,16.2-8.3,48.3-22.1,95.4-41.3,140.9-32.4,76.7-78.9,145.6-138.1,204.8-59.2,59.2-128.1,105.6-204.8,138-55.3,23.4-112.9,38.7-172.2,45.9l-26.9,32.8c72.8-5.5,143.5-22.6,210.8-51.1,80.3-34,152.4-82.6,214.3-144.5,61.9-61.9,110.5-134,144.5-214.3,22.9-54.1,38.4-110.5,46.5-168.3.8-5.4,1.4-10.8,2.1-16.2,2.2-19.4,3.6-39,4.2-58.7,12-7.8,23.4-16.7,34.2-26.7l.5-.3,7.8-7.8,2.5-2.5c0,.3,0,.5,0,.8.1,5.7.2,11.5.2,17.2Z"/>
  </g>
  <g>
    <path class="cls-18" d="M946.5,244.2c-.9.9-1.8,1.7-2.8,2.5-2.2,1.7-4.7,2.6-7.5,2.8-1.8.1-3.6.1-5.3-.4-3.5-1-5.9-3.2-7-6.7-1.2-4.2-.9-8.2,1.6-11.8,2-2.9,4.8-4.5,8.2-5.4,3-.8,6.1-1.1,9.2-1.5.6,0,1.2-.1,1.7-.2.2,0,.5,0,.4-.4,0-1.4.1-2.8-.2-4.2-.4-1.9-1.6-3-3.4-3.5-1.5-.4-3-.2-4.5.5-1.6.7-2.5,2-2.9,3.6-.3,1.3-.7,1.6-2,1.4-2.1-.2-4.1-.4-6.2-.7-1.1-.1-1.5-.8-1.2-1.9,1-4.6,3.7-7.8,8.2-9.5,4.8-1.8,9.7-2,14.6-.5,5.2,1.6,7.8,5,8,10.5.2,3.8,0,7.6,0,11.4,0,1.6,0,3.2,0,4.9,0,2.1.5,4,1.8,5.7.4.5.8,1.1,1.1,1.6.5.8.4,1.3-.3,1.9-1.8,1.5-3.5,3-5.3,4.4-1,.9-1.6.8-2.6,0-1.5-1.3-2.6-2.8-3.7-4.5ZM945.1,232.2c0-.8,0-1.6,0-2.4,0-.4-.1-.5-.5-.5-1.4,0-2.8.1-4.2.4-4.6,1-6.7,3.7-6.3,8,.4,3.8,4,5.5,7.2,3.6,1.1-.7,1.8-1.6,2.4-2.7,1.1-2,1.3-4.2,1.3-6.5Z"/>
    <path class="cls-25" d="M941.2,261c-9.1,0-17-2.7-23.9-8-.6-.5-1.2-1-1.8-1.5-.3-.2-.7-.5-.4-1,.3-.4.7,0,1,0,2.9,1.7,5.9,3,9.1,4,5.9,1.9,12,2.8,18.2,2.6,6-.2,11.8-1.5,17.3-3.8.1,0,.2-.1.3-.1.5-.1.9-.1,1.2.3.3.5,0,.8-.4,1.1-1.4,1-2.9,1.9-4.4,2.6-4.4,2.1-9,3.3-13.9,3.6-.9,0-1.7,0-2.2.1Z"/>
    <path class="cls-8" d="M961.2,251.4c-1.1,0-2.3.2-3.4.3-.2,0-.5.1-.7-.2-.2-.3.1-.5.3-.6,1.1-.8,2.3-1.1,3.6-1.4,1.6-.3,3.2-.2,4.8.2.7.2,1,.6,1,1.2-.1,2.9-1.1,5.5-3.2,7.6,0,0-.1.1-.2.2-.2.1-.4.2-.6,0-.3-.2-.1-.4,0-.6.4-1.1.9-2.2,1.2-3.3.2-.7.4-1.4.4-2.1,0-.8-.2-1.1-1-1.3-.7-.2-1.4-.1-2.1-.1Z"/>
  </g>
  <g>
    <path class="cls-24" d="M951.4,1497.7c-.5.2-.9.3-1.3.5-.2,0-.2,0-.3-.1-.2-.4-.4-.8-.6-1.2-.6-1-1.2-2-2.2-2.7-.9-.7-1.9-1-3-1-.3,0-.6,0-.8-.3-.5-.6-1.2-1-2-1.1-.4,0-.9,0-1.3,0-.9.1-1.7.4-2.5.8-1.4.7-2.5,1.7-3.5,2.9-1.2,1.6-2.1,3.3-2.8,5.1-.6,1.6-1.1,3.2-1.4,4.9,0,.1-.1.2-.2.3-1,.4-2,.7-2.9,1.1-.9.3-1.7.6-2.6.9-.5.2-1.4.5-1.5,1,0,.7-.1,1.4-.2,2.1,0,.8-.1,1.7-.2,2.5,0,.8-.1,1.6-.2,2.5,0,.8-.1,1.7-.2,2.5,0,.9-.1,1.7-.2,2.6,0,.8-.1,1.6-.2,2.4,0,1.1-.2,2.2-.3,3.3,0,1-.1,1.9-.2,2.9,0,1.1-.2,2.2-.3,3.2,0,1.1-.2,2.2-.3,3.3,0,1.1-.2,2.2-.3,3.2,0,.9-.1,1.7-.2,2.6,0,.3,0,.2.2.3.7,0,1.3.2,2,.3,2.1.3,4.8.6,6.8.9,2,.3,4,.6,6,.8,2,.3,4,.5,6,.8,1.5.2,3,.4,4.5.6,2.1.3,4.1.6,6.2.8.2,0,.5.1.7,0,0-.6,0-1.2,0-1.9,0-.3,0-.6,0-.8,0-.5,0-.9,0-1.4,0,0,0,0,0,0,0-.5,0-1.1,0-1.6,0-.5,0-.9,0-1.4,0,0,0,0,0,0,0-.5,0-1,0-1.5,0-.5,0-1,0-1.5,0,0,0,0,0,0,0-.5,0-1.1,0-1.6,0-.5,0-.9,0-1.4,0,0,0,0,0,0,0-.5,0-1.1,0-1.6,0-.4,0-.9,0-1.3,0,0,0,0,0,0,0-.6,0-1.1,0-1.7,0-.5,0-.9,0-1.4,0,0,0,0,0,0,0-.5,0-1.1,0-1.6,0-.4,0-.8,0-1.2,0,0,0,0,0,0,0-.6,0-1.1,0-1.7,0-.4,0-.9,0-1.3,0,0,0,0,0,0,0-.5,0-.9,0-1.4,0-.5,0-1.1,0-1.6,0,0,0,0,0,0,0-.5,0-1.1,0-1.6,0-.7,0-1.4,0-2.1,0-.6,0-1.3,0-1.9,0-.7,0-1.4,0-2.1,0-.3,0-.6,0-.9,0-.7,0-1.4,0-2,0-.3,0-.6,0-.9,0-.7,0-1.4,0-2.1,0-.6,0-1.3,0-1.9,0-.4,0-.7,0-1.1,0-.7,0-1.3,0-1.9,0-.3,0-.6,0-1,0-.2,0-.5,0-.7-.3,0-.5,0-.8,0ZM942.8,1495.8c.3.7.5,1.4.6,2.2.1.8.2,1.6.2,2.3,0,.3,0,.2-.2.3-1.6.6-3.3,1.2-4.9,1.8,0,0-.2,0-.2,0,0,0,0-.1,0-.2.3-1.5.8-3,1.7-4.3.6-1,1.4-1.8,2.4-2.4.3-.2.3-.2.4.1ZM931.8,1504.6c.4-1.6,1-3.3,1.7-4.8.5-1.1,1.1-2.2,1.9-3.2.8-1,1.6-1.8,2.8-2.4.7-.4,1.4-.5,2.2-.6.3,0,.6,0,.9.2,0,0,0,0,0,0-1.4.8-2.5,2-3.3,3.5-.6,1.1-1.1,2.3-1.4,3.6-.2.7-.3,1.4-.4,2.2,0,.1,0,.2-.2.2-1.3.5-2.6.9-3.8,1.4,0,0-.1,0-.2,0,0,0,0-.1,0-.2ZM944.5,1511.6c-.5,1.9-1.1,3.8-1.6,5.7,0,.3,0,.3-.4.2-1.4-.5-2.9-.8-4.4-.6-.7,0-1.4.3-2,.8-.7.6-.9,1.4-.7,2.3.1.5.4.8.8,1.1.4.4.9.7,1.3,1,.8.6,1.7,1.1,2.5,1.8,1.1.9,2,1.9,2.6,3.2.4.8.6,1.6.6,2.5.1,1.3,0,2.6-.4,3.9-.3,1.1-.9,2.2-1.7,3-1,1.1-2.3,1.9-3.8,2.2-1,.2-2,.3-3,.2-1.2,0-2.4-.3-3.6-.8-1.2-.5-2.2-1.1-3.1-2-.1,0-.1-.2-.1-.3.4-1.5.7-3,1.1-4.5,0,0,0,0,0-.1.2.2.5.3.7.5.9.6,1.9,1.1,2.9,1.4.6.2,1.2.3,1.8.2,1.2,0,2.1-1,2.1-2.2,0-.7-.3-1.3-.7-1.8-.4-.5-.9-.9-1.4-1.3-.7-.5-1.4-1-2-1.5-.7-.6-1.4-1.4-1.8-2.3-.5-1.1-.7-2.2-.7-3.3,0-1,.1-1.9.4-2.8.8-2.7,2.5-4.7,5-6,1.1-.6,2.2-.9,3.4-1.1.9-.2,1.8-.2,2.7-.2,1,0,2.1.1,3.1.5q.4.1.3.5ZM947.9,1499c-.8.3-1.5.6-2.3.8-.1,0-.2,0-.2-.1,0-.3,0-.6,0-.9,0-1.2-.3-2.4-.7-3.6,0,0,0,0,0-.2.2,0,.4,0,.6.1.6.2,1,.7,1.4,1.1.6.7,1,1.6,1.3,2.4,0,.1,0,.2,0,.2Z"/>
    <path class="cls-4" d="M952.2,1546.4c0-.6,0-1.2,0-1.9,0-.3,0-.6,0-.8,0-.5,0-.9,0-1.4,0,0,0,0,0,0,0-.5,0-1.1,0-1.6,0-.5,0-.9,0-1.4,0,0,0,0,0,0,0-.5,0-1,0-1.5,0-.5,0-1,0-1.5,0,0,0,0,0,0,0-.5,0-1.1,0-1.6,0-.5,0-.9,0-1.4,0,0,0,0,0,0,0-.5,0-1.1,0-1.6,0-.4,0-.9,0-1.3,0,0,0,0,0,0,0-.6,0-1.1,0-1.7,0-.5,0-.9,0-1.4,0,0,0,0,0,0,0-.5,0-1.1,0-1.6,0-.4,0-.8,0-1.2,0,0,0,0,0,0,0-.6,0-1.1,0-1.7,0-.4,0-.9,0-1.3,0,0,0,0,0,0,0-.5,0-.9,0-1.4,0-.5,0-1.1,0-1.6,0,0,0,0,0,0,0-.5,0-1.1,0-1.6,0-.7,0-1.4,0-2.1,0-.6,0-1.3,0-1.9,0-.7,0-1.4,0-2.1,0-.3,0-.6,0-.9,0-.7,0-1.4,0-2,0-.3,0-.6,0-.9,0-.7,0-1.4,0-2.1,0-.6,0-1.3,0-1.9,0-.4,0-.7,0-1.1,0-.6,0-1.3,0-1.9,0-.3,0-.6,0-1,0-.2,0-.5,0-.7.2,0,.4.1.5.2,1,.9,2.1,1.9,3.1,2.8.1.1.3.2.4.2.7,0,1.5,0,2.2,0,.7,0,1.3,0,2,0,.3,0,.5.2.5.5.2.8.3,1.6.5,2.4.2,1.2.5,2.3.7,3.5.2,1.1.5,2.3.7,3.4.3,1.5.6,3,.9,4.5.3,1.4.5,2.7.8,4.1.3,1.3.5,2.6.8,3.9.3,1.5.6,3,.9,4.5.2,1.2.5,2.3.7,3.5.3,1.3.5,2.6.8,3.9.3,1.4.5,2.7.8,4.1.2.8.3,1.6.5,2.4,0,.2,0,.2-.2.3-2.7.7-5.4,1.4-8.1,2.2-2.8.7-5.6,1.5-8.3,2.2,0,0-.2,0-.2,0Z"/>
    <path class="cls-4" d="M928.8,1531.1c.2.2.5.3.7.5.9.6,1.9,1.1,2.9,1.4.6.2,1.2.3,1.8.2,1.2,0,2.1-1,2.1-2.2,0-.7-.3-1.3-.7-1.8-.4-.5-.9-.9-1.4-1.3-.7-.5-1.4-1-2-1.5-.7-.6-1.4-1.4-1.8-2.3-.5-1.1-.7-2.2-.7-3.3,0-1,.1-1.9.4-2.8.8-2.7,2.5-4.7,5-6,1.1-.6,2.2-.9,3.4-1.1.9-.2,1.8-.2,2.7-.2,1,0,2.1.1,3.1.5q.4.1.3.5c-.5,1.9-1.1,3.8-1.6,5.7,0,.3,0,.3-.4.2-1.4-.5-2.9-.8-4.4-.6-.7,0-1.4.3-2,.8-.7.6-.9,1.4-.7,2.3.1.5.4.8.8,1.1.4.4.9.7,1.3,1,.8.6,1.7,1.1,2.5,1.8,1.1.9,2,1.9,2.6,3.2.4.8.6,1.6.6,2.5.1,1.3,0,2.6-.4,3.9-.3,1.1-.9,2.2-1.7,3-1,1.1-2.3,1.9-3.8,2.2-1,.2-2,.3-3,.2-1.2,0-2.4-.3-3.6-.8-1.2-.5-2.2-1.1-3.1-2-.1,0-.1-.2-.1-.3.4-1.5.7-3,1.1-4.5,0,0,0,0,0-.1Z"/>
    <path class="cls-23" d="M931.8,1504.8s0,0,0,0c0,0,0,0,0,0h0Z"/>
  </g>
  <path class="cls-22" d="M1585.7,911.9c-1.1,19.3-3,38.5-5.8,57.5-.8,5.4-1.6,10.8-2.6,16.2-15.5,6.6-29,11.2-38.4,14.1,1.1-5.3,2.2-10.7,3.1-16,2.9-15.9,5.1-31.9,6.7-48.2l30-20.5c2.3-1,4.6-2,6.9-3.1Z"/>
  <path class="cls-22" d="M1661.7,875.7c0,15.4-.5,30.7-1.4,46-.3,5.3-.7,10.7-1.2,16-15.7,12.8-32.6,23.4-48.9,32.2.8-5.4,1.4-10.8,2.1-16.2,2.2-19.4,3.6-39,4.2-58.7,12-7.8,23.4-16.7,34.2-26.7l.5-.3,7.8-7.8,2.6-1.7c.1,5.7.2,11.5.2,17.2Z"/>
  <path class="cls-5" d="M1566,920c6.7-2.4,13.2-5.1,19.7-8.1-1.1,19.3-3,38.5-5.8,57.5-14.9,6.4-28.1,11.1-37.8,14.2,3.5-19.2,6-38.6,7.6-58.4,5.5-1.6,11-3.3,16.3-5.3Z"/>
  <path class="cls-5" d="M1661.7,875.7c0,15.4-.5,30.7-1.4,46-15.4,12.7-32,23.3-48,32,2.2-19.4,3.6-39,4.2-58.7,12-7.8,23.4-16.7,34.2-26.7l.5-.3,10.4-10.4c.1,6,.2,12,.2,18Z"/>
  <path class="cls-22" d="M275.8,977.1c-15.8-7.7-32.7-17.2-48.9-28.7-.5-5.3-1-10.6-1.4-16-1.5-18.8-2.2-37.7-2.2-56.8s0-6.2,0-9.2l6.6,4.3c12.1,10.9,25.1,20.5,38.8,28.8.7,20.7,2.4,41.2,4.9,61.5.7,5.4,1.4,10.7,2.2,16.1Z"/>
  <path class="cls-22" d="M346.9,1004.1c-5.2-1.4-19.5-5.4-38.3-12.7-1-5.4-1.9-10.7-2.7-16.1-3-19.3-5.1-38.8-6.3-58.5l37.2,24.6c1.7,15.7,4,31.2,6.8,46.6,1,5.4,2.1,10.8,3.3,16.2Z"/>
  <path class="cls-5" d="M273.6,961c-15.6-7.7-32.2-17.1-48.1-28.6-1.5-18.8-2.2-37.7-2.2-56.8s0-3.1,0-4.6,0-3.1,0-4.6l6.5,4.3c.8.7,1.5,1.4,2.3,2.1,1.5,1.4,3.1,2.7,4.6,4,.9.8,1.8,1.5,2.7,2.3,1.4,1.2,2.9,2.3,4.3,3.5,1.6,1.2,3.2,2.5,4.8,3.7.7.6,1.5,1.1,2.2,1.6,1.8,1.3,3.7,2.6,5.5,3.9.7.5,1.4,1,2.1,1.4.8.5,1.6,1.1,2.3,1.6,2.6,1.7,5.2,3.3,7.8,4.9.7,20.7,2.4,41.2,4.9,61.5Z"/>
  <path class="cls-5" d="M343.6,987.8c-6-1.6-19.9-5.7-37.8-12.6-3.1-19.8-5.2-39.8-6.4-60,4,1.7,8.1,3.3,12.3,4.8,7.7,2.8,15.6,5.2,23.7,7.2,1.7,20.5,4.5,40.7,8.2,60.6Z"/>
</svg>